<svg xmlns="http://www.w3.org/2000/svg" viewBox="0 0 500 500">
  <path d="M90 443.85C1.59 399.5 1.59 327.6 90 283.25s231.68-44.35 320.06 0 88.38 116.25 0 160.6-231.7 44.35-320.06 0" style="fill:#3A2622"/>
  <ellipse cx="369.43" cy="382.78" rx="61.17" ry="35.32" style="fill:#1a1414"/>
  <path d="M282.09 365.44c6.63 3.82 6.63 10 0 13.84s-17.36 3.83-24 0-6.62-10 0-13.84 17.38-3.83 24 0" style="fill:#1a1414"/>
  <path style="fill:#3A2622" d="M76.7 181.63v16.17l38.76-22.38v22.38l33.38-19.28v-16.17l-16.69 9.64v-6.21l77.52-44.75v6.21l-16.7 9.63.01 38.55 16.69-9.64v6.21l-16.7 9.64.01 19.27-5.38 3.1v-64.02l-33.38 19.27v22.38l-44.14 25.48v-22.38L76.7 204v150.44l33.38-19.28v-44.75l19.38-11.19v-16.17l-33.38 19.27v41.65l-5.38 3.11v-67.13l5.38-3.11v19.28l38.76-22.38v28.58l-19.38 11.19v38.55l16.69-9.64v6.21l-60.82 35.12V178.53l60.82-35.12v6.21z"/>
  <path style="fill:#3A2622" d="m231.73 271.13-63.51 36.67v-22.37l-36.07 20.82v-6.2l16.69-9.64v-60.92l-38.76 22.37v-22.37L90.7 240.67v-25.48l5.38-3.1v19.27l72.14-41.65v-19.27l5.38-3.1v64.02l33.38-19.27v-19.27l5.37-3.11v70.24l-22.06 12.74v-6.21l16.69-9.64V218.3l-38.76 22.37v-44.75l-52.76 30.46v16.17l38.76-22.37v67.13l14-8.09v-22.38l22.07-12.74v6.21l-16.69 9.64v38.54l52.76-30.46V139.98l-16.69 9.63v-6.2l16.69-9.64V95.22l-55.45 32.02v-6.21l60.82-35.12z"/>
  <path d="m133.71 144.31-60.83 35.12v185.22l7.12 4.12 60.82-35.12v-6.21l-7.13-4.12-9.56 5.52v-30.31l19.38-11.19v-28.58l-7.13-4.12-31.61 18.26v-11l-7.13-4.12-5.38 3.11V328l7.14 4.12 5.37-3.11v-41.67L131 272.19v7.93l-19.38 11.19v44.75l-26.23 15.16V209l26.25-15.15V208l7.14 4.12 44.13-25.48v-22.37l26.25-15.15v55.78l7.13 4.12 5.38-3.1v-19.27l16.69-9.65v-6.2l-7.14-4.12-9.55 5.52v-30.31l16.69-9.63v-6.21l-7.14-4.12-77.51 44.75v6.21l7.13 4.12 9.56-5.52v7.93l-26.25 15.16v-14.14l-7.15-4.12-31.61 18.26v-7.93l55.45-32v-6.2Z" style="fill:#ffc100"/>
  <path d="m240.43 90.93-7.14-4.12-60.82 35.12v6.21l7.13 4.12 48.32-27.9v30.31l-16.7 9.64v6.2l7.14 4.12 9.56-5.51v119.81l-45.63 26.34V265l16.71-9.67v-6.21l-7.15-4.12-22.07 12.74v22.38l-6.87 4v-58.9l-7.13-4.12-31.63 18.26v-7.96l45.63-26.34v36.51l7.13 4.12 31.63-18.26v30.31l-16.69 9.64v6.21l7.13 4.12L221.05 265v-70.27l-7.14-4.12-5.37 3.11V213l-26.25 15.15v-55.8l-7.14-4.11-5.37 3.1v19.27l-65 37.53v-11L97.64 213l-5.38 3.1v25.48l7.14 4.12 12.24-7.07v14.14l7.14 4.12 31.62-18.26v52.69L133.71 301v6.2l7.13 4.12 28.94-16.7v14.08l7.13 4.12 63.52-36.67Z" style="fill:#ffc100"/>
  <path d="m140.84 148.43-7.13-4.12-60.83 35.12 7.14 4.11zm38.76-22.38-7.13-4.12 60.82-35.12 7.14 4.12zm-55.45 54.39-7.13-4.12-31.63 18.26v8.24zm26.25-1.02 7.13 4.12-33.38 19.28v-8.24zm67.96-53.37-7.14-4.12-77.51 44.76 7.13 4.11zm0 22.38 16.69-9.64-7.13-4.12-16.7 9.64zm0 22.37-7.14-4.12-9.52 5.47-.03 8.29zm-41.45 4.66-7.13-4.12 5.37-3.1 7.14 4.11zm-7.13 15.15-65.01 37.53v8.24l72.14-41.65zm-65.01 26.5-5.37 3.1-7.14-4.12 5.38-3.1zm-5.37 47.86 5.37-3.11-7.13-4.12-5.38 3.11zm19.38 75.21-7.14-4.12-26.25 15.16v8.23zm22.06-12.74-7.13-4.12-9.56 5.52v8.24zm-9.82-47.32 7.14 4.12-19.38 11.19-7.14-4.12zm12.51-21.36-38.76 22.38v-8.24l31.63-18.26zm-19.38-11.19 38.76-22.38-7.13-4.12-31.63 18.26zm9.56 53.37 16.69-9.63 7.13 4.12-16.69 9.63zm36.07-20.82 7.13 4.12-14 8.08v-8.24zm0-22.38L191.85 245l7.13 4.12-22.07 12.74zm12.51 45.77 52.76-30.46-7.13-4.12-45.63 26.34zm33.38-41.65-16.69 9.64-7.13-4.12 16.69-9.64zm0-44.75-33.38 19.27v-8.24l26.25-15.15z" style="opacity:.1"/>
  <path d="M80.02 368.76V183.54l-7.14-4.11v185.22zm99.58-236.5v-6.21l-7.13-4.12v6.21zm-22.07 51.28v-16.17l-7.13 4.12v7.93zm-16.69-6.53v-6.21l-7.13-4.11v6.2zm94.21-38.22-7.13-4.12v-30.31l7.13-4.12zm-16.69 15.84v-6.2l-7.14-4.12v6.2zm-22.07 54.39-7.13-4.11v-55.79l7.13-4.12zm-19.38-14.29v-19.27l-7.13-4.12v19.27zM99.4 245.69v-25.48l-7.14-4.12v25.48zm77.51-44.75-7.13 4.12v36.51l7.13 4.12zm-58.13 11.19v-22.38l-7.14 4.12v14.14zM99.4 332.1v-67.13l-7.14-4.12v67.13zm19.38 8.08v-44.75l-7.14-4.12v44.75zm19.38-55.94v-16.17l-7.14 4.12v7.93zm-19.38-27.36V234.5l-7.14 4.12v14.14zm31.62-18.26 7.13-4.12v60.93l-7.13-4.12zm-9.56 72.65-7.13-4.12v-6.21l7.13 4.12zm36.07-27.03v-22.38l-7.13-4.12v22.38zm0 28.58v-22.37l-7.13 4.12v14.13zm58.14-39.77V145l-7.13 4.12v119.81zm-36.07 4.66v-6.21l-7.13-4.12v6.21zm16.69-15.85v-38.55l-7.13 4.13v30.3zm0-44.75v-19.27l-7.13-4.12v19.27z" style="opacity:.2"/>
  <path style="fill:#ffc100" d="M85.39 186.65v16.17l38.76-22.38v22.38l33.38-19.28v-16.17l-16.69 9.64v-6.21l77.52-44.75v6.21l-16.69 9.63v38.55l16.69-9.64v6.21l-16.69 9.64v19.27l-5.38 3.1V145l-33.38 19.27v22.38l-44.13 25.48v-22.38l-33.39 19.27v150.43l33.39-19.27v-44.75l19.38-11.19v-16.17l-33.39 19.27v41.65l-5.37 3.11v-67.13l5.37-3.11v19.28l38.76-22.38v28.58l-19.38 11.19v38.55l16.69-9.64v6.21l-60.82 35.11V183.54l60.82-35.11v6.2z"/>
  <path style="fill:#ffc100" d="m240.43 276.15-63.52 36.67v-22.37l-36.07 20.82v-6.21l16.69-9.63V234.5l-38.75 22.38V234.5L99.4 245.69v-25.48l5.37-3.1v19.27l72.14-41.65v-19.27l5.38-3.11v64.03l33.38-19.27v-19.27l5.38-3.11v70.23l-22.07 12.75v-6.21l16.69-9.64v-38.55l-38.76 22.38v-44.75l-52.76 30.46v16.17l38.76-22.38v67.13l14-8.08v-22.38l22.07-12.74v6.21l-16.69 9.64v38.54l52.76-30.46V145l-16.69 9.63v-6.2l16.69-9.64v-38.55l-55.45 32.02v-6.21l60.83-35.12z"/>
  <path d="M156.52 326a1.18 1.18 0 0 1-1.18-1.18v-5.89a1.18 1.18 0 0 1 1.18-1.18 1.17 1.17 0 0 1 1.17 1.18v5.89a1.17 1.17 0 0 1-1.17 1.18m0-12.69a1.18 1.18 0 0 1-1.18-1.18v-3.85l-3.34 1.93a1.18 1.18 0 0 1-1.61-.43 1.17 1.17 0 0 1 .43-1.61l5.1-2.95a1.18 1.18 0 0 1 1.77 1v5.89a1.17 1.17 0 0 1-1.17 1.2M139 317.55a1.16 1.16 0 0 1-1-.59 1.17 1.17 0 0 1 .43-1.61l6.22-3.59a1.18 1.18 0 0 1 1.18 2l-6.23 3.59a1.1 1.1 0 0 1-.6.2m-11.35 6.54a1.3 1.3 0 0 1-.59-.16 1.18 1.18 0 0 1-.58-1V317a1.18 1.18 0 1 1 2.35 0v3.85l3.34-1.93a1.17 1.17 0 0 1 1.6.44 1.16 1.16 0 0 1-.43 1.6l-5.1 2.95a1.2 1.2 0 0 1-.59.18m0-16.71a1.17 1.17 0 0 1-1.17-1.17v-5.89a1.18 1.18 0 0 1 .58-1l5.11-2.95a1.18 1.18 0 0 1 1.17 2l-4.51 2.63v5.21a1.17 1.17 0 0 1-1.18 1.17m13.4-13.62a1.18 1.18 0 0 1-.59-2.2L145 289v-5.21a1.18 1.18 0 1 1 2.35 0v5.89a1.18 1.18 0 0 1-.59 1l-5.1 2.94a1.14 1.14 0 0 1-.61.14m5.1-19.76a1.17 1.17 0 0 1-1.17-1.18V262a1.18 1.18 0 1 1 2.35 0v10.89a1.18 1.18 0 0 1-1.18 1.11m0-21.74a1.17 1.17 0 0 1-1.17-1.17v-3.85l-3.34 1.92a1.18 1.18 0 1 1-1.18-2l5.1-2.94a1.18 1.18 0 0 1 1.18 0 1.17 1.17 0 0 1 .59 1v5.89a1.17 1.17 0 0 1-1.18 1.15m-23.68 7.79a1.18 1.18 0 0 1-.59-2.2l9.29-5.36a1.17 1.17 0 0 1 1.61.43 1.19 1.19 0 0 1-.43 1.61l-9.3 5.36a1.1 1.1 0 0 1-.58.16m-14.4 8.31a1.14 1.14 0 0 1-.59-.16 1.18 1.18 0 0 1-.59-1v-5.89a1.18 1.18 0 0 1 2.36 0v3.85l3.33-1.92a1.18 1.18 0 1 1 1.18 2l-5.1 2.94a1.14 1.14 0 0 1-.59.18m0-16.8a1.18 1.18 0 0 1-1.18-1.18v-3.85l-3.33 1.93a1.18 1.18 0 1 1-1.18-2l5.1-2.95a1.18 1.18 0 0 1 1.77 1v5.89a1.18 1.18 0 0 1-1.18 1.16M88.42 257a1.2 1.2 0 0 1-.59-.15 1.19 1.19 0 0 1-.59-1V250a1.18 1.18 0 0 1 2.36 0v3.85l3.33-1.93a1.18 1.18 0 1 1 1.18 2l-5.1 3a1.2 1.2 0 0 1-.59.08m0-16.87a1.17 1.17 0 0 1-1.18-1.13v-11a1.18 1.18 0 0 1 2.36 0v11a1.17 1.17 0 0 1-1.18 1.13m0-21.98a1.18 1.18 0 0 1-1.18-1.15v-5.89a1.19 1.19 0 0 1 .59-1l5.1-2.94a1.18 1.18 0 1 1 1.18 2l-4.51 2.6V217a1.18 1.18 0 0 1-1.18 1.15m19.65-11.34a1.18 1.18 0 0 1-1.18-1.18v-3.85l-3.33 1.92a1.18 1.18 0 1 1-1.18-2l5.1-2.94a1.18 1.18 0 0 1 1.77 1v5.89a1.18 1.18 0 0 1-1.18 1.16m0 16.48a1.2 1.2 0 0 1-.59-.15 1.2 1.2 0 0 1-.59-1v-5.89a1.18 1.18 0 0 1 2.36 0v3.85l3.33-1.93a1.18 1.18 0 0 1 1.18 2l-5.1 2.95a1.23 1.23 0 0 1-.59.17m14.63-8.44a1.2 1.2 0 0 1-1-.59 1.18 1.18 0 0 1 .43-1.61l9.54-5.51a1.17 1.17 0 0 1 1.6.44 1.16 1.16 0 0 1-.43 1.6l-9.53 5.51a1.24 1.24 0 0 1-.61.16m19.07-11a1.16 1.16 0 0 1-1-.59 1.17 1.17 0 0 1 .43-1.61l9.53-5.5a1.18 1.18 0 0 1 1.18 2l-9.54 5.5a1.1 1.1 0 0 1-.6.19Zm19.06-11.02a1.17 1.17 0 0 1-.59-2.19l4.51-2.61v-5.21a1.18 1.18 0 0 1 2.36 0v5.89a1.19 1.19 0 0 1-.59 1l-5.1 3a1.26 1.26 0 0 1-.59.12m5.1-19.43a1.18 1.18 0 0 1-1.18-1.18v-5.89a1.19 1.19 0 0 1 .59-1l5.1-2.94a1.18 1.18 0 1 1 1.18 2l-4.51 2.6v5.21a1.18 1.18 0 0 1-1.18 1.2M185.7 162a1.17 1.17 0 0 1-1.17-1.17V157l-3.34 1.92a1.18 1.18 0 1 1-1.17-2l5.1-2.94a1.18 1.18 0 0 1 1.76 1v5.89a1.17 1.17 0 0 1-1.18 1.13m0 44.22a1.17 1.17 0 0 1-1.17-1.18V194a1.18 1.18 0 1 1 2.35 0v11a1.18 1.18 0 0 1-1.18 1.22m0-22.12a1.17 1.17 0 0 1-1.17-1.17v-11.06a1.18 1.18 0 1 1 2.35 0v11.06a1.17 1.17 0 0 1-1.18 1.17m0 39.07a1.1 1.1 0 0 1-.58-.16 1.17 1.17 0 0 1-.59-1v-5.91a1.18 1.18 0 0 1 2.35 0v3.9l3.34-1.92a1.18 1.18 0 0 1 1.17 2l-5.1 2.94a1.1 1.1 0 0 1-.59.15m14.17-8.17a1.18 1.18 0 0 1-.59-2.2l4.51-2.61V205a1.18 1.18 0 0 1 2.35 0v5.89a1.17 1.17 0 0 1-.59 1l-5.1 3a1.1 1.1 0 0 1-.58.11m5.13-19.38a1.17 1.17 0 0 1-1.17-1.18v-5.89a1.17 1.17 0 0 1 .59-1l5.1-2.95a1.18 1.18 0 1 1 1.17 2l-4.51 2.6v5.21a1.18 1.18 0 0 1-1.18 1.21m14.24-14.14a1.17 1.17 0 0 1-.59-2.19l4.52-2.61v-5.21a1.18 1.18 0 1 1 2.35 0v5.89a1.17 1.17 0 0 1-.59 1l-5.1 3a1.2 1.2 0 0 1-.59.12m5.1-19.43a1.17 1.17 0 0 1-1.17-1.18V157l-3.34 2a1.18 1.18 0 0 1-1.18-2l5.11-2.95a1.18 1.18 0 0 1 1.76 1v5.89a1.18 1.18 0 0 1-1.18 1.11m-19.34 5.3a1.1 1.1 0 0 1-.58-.16 1.17 1.17 0 0 1-.59-1v-5.89a1.18 1.18 0 0 1 2.35 0v3.85l3.34-1.92a1.18 1.18 0 1 1 1.17 2l-5.1 2.94a1.1 1.1 0 0 1-.59.18m0-16.49a1.17 1.17 0 0 1-1.17-1.17v-5.89a1.17 1.17 0 0 1 .59-1l5.1-2.95a1.18 1.18 0 1 1 1.17 2l-4.51 2.61v5.21a1.17 1.17 0 0 1-1.18 1.19m14.24-14.13a1.18 1.18 0 0 1-.59-2.2l4.52-2.6v-5.21a1.18 1.18 0 1 1 2.35 0v5.89a1.17 1.17 0 0 1-.59 1l-5.1 2.94a1.14 1.14 0 0 1-.59.18m5.1-19.11a1.17 1.17 0 0 1-1.17-1.17v-3.85l-3.34 1.92a1.18 1.18 0 0 1-1.18-2l5.11-2.94a1.18 1.18 0 0 1 1.76 1v5.89a1.17 1.17 0 0 1-1.18 1.15m-51.2 23.67a1.17 1.17 0 0 1-.59-2.19l11.53-6.66a1.18 1.18 0 0 1 1.18 2l-11.53 6.66a1.23 1.23 0 0 1-.59.19M196.19 128a1.18 1.18 0 0 1-.59-2.2l11.53-6.66a1.18 1.18 0 0 1 1.18 2l-11.53 6.66a1.14 1.14 0 0 1-.59.2m-39.67 22.89a1.2 1.2 0 0 1-.59-.15 1.17 1.17 0 0 1-.59-1v-5.89a1.18 1.18 0 1 1 2.35 0v3.85l3.33-1.93a1.18 1.18 0 0 1 1.18 2l-5.1 3a1.26 1.26 0 0 1-.58.12m0-16.74a1.18 1.18 0 0 1-1.18-1.18v-5.89a1.18 1.18 0 0 1 2.35 0V133a1.17 1.17 0 0 1-1.17 1.15" style="fill:#455a64"/>
  <path d="M150.82 78.84c-5.75 3.33-10.42 12.24-10.42 19.91 0 11 6.83 8.92 6.83 13.36a1.24 1.24 0 0 0 1.05 1.35c1.4.27 3.68-1 5.08-2.93a4.64 4.64 0 0 0 1-2.57c0-4.44 6.83-10.21 6.83-21.24.05-7.67-4.62-11.2-10.37-7.88m6 14.71a4.74 4.74 0 0 1-2.4 2.33c-.22.86-.44 1.87-.64 3a61 61 0 0 0-.86 9.86 1 1 0 0 1-.42.83c-.23.14-.42 0-.43-.31a62 62 0 0 1 .93-10.13c.18-1.1.4-2.12.63-3a3.2 3.2 0 0 1-1.1-.08 3.7 3.7 0 0 1-1.68-.92 19 19 0 0 1-1.68 2.86 13 13 0 0 1-1.1 1.35 18 18 0 0 1 .63 2.32 47 47 0 0 1 .89 9.15 1 1 0 0 1-.44.81c-.24.13-.43 0-.42-.34a47.3 47.3 0 0 0-.86-8.86 15.4 15.4 0 0 0-.65-2.31c-1.05.81-1.9.88-2.39.45a2 2 0 0 1-.19-2.26 2.2 2.2 0 0 1 1.17-1.33c.68-.21 1.34.33 1.91 1.52a10.6 10.6 0 0 0 1-1.21 17.6 17.6 0 0 0 1.6-2.77 3.93 3.93 0 0 1-.63-2.86 2.68 2.68 0 0 1 1.16-1.81c.57-.33 1-.15 1.16.47a7.25 7.25 0 0 1-.63 3.59 3.3 3.3 0 0 0 1.6.91 2.7 2.7 0 0 0 1 .06 8.4 8.4 0 0 1 1.91-3.72c.45-.37.87-.38 1.17 0a2.53 2.53 0 0 1-.22 2.4Z" style="fill:#3A2622"/>
  <path d="M154.53 109.36v3.53a4.75 4.75 0 0 1-1.09 2.65c-1.44 1.94-3.8 3.3-5.24 3a1.28 1.28 0 0 1-1.07-1.49v-3.15a1.26 1.26 0 0 0 1.07 1.1c1.44.28 3.8-1.08 5.24-3a4.7 4.7 0 0 0 1.09-2.64" style="fill:#3A2622"/>
  <path d="M156 110.26a4.7 4.7 0 0 1-1.09 2.64 7.7 7.7 0 0 1-4.36 3l-2-1.13V118a1.37 1.37 0 0 0 .58 1.31l3.68 2.12a1.3 1.3 0 0 0 .46.16c1.44.28 3.79-1.08 5.23-3a4.75 4.75 0 0 0 1.09-2.65v-3.53Z" style="fill:#37474f"/>
  <path d="m149.18 119.28 3.68 2.12a1.3 1.3 0 0 0 .46.16 2.4 2.4 0 0 0 .47 0l-1.55-1.52v-3.18l-1.69-1-2-1.13V118a1.37 1.37 0 0 0 .63 1.28m9.93-40.08c-1.83-1.06-4.21-1-6.82.54-5.75 3.32-10.41 12.24-10.41 19.91 0 11 6.82 8.92 6.82 13.36a1.29 1.29 0 0 0 .59 1.18l3.64 2.1a1.3 1.3 0 0 0 .46.17c1.41.27 3.68-1 5.09-2.93a4.64 4.64 0 0 0 1.05-2.57c0-4.44 6.82-10.21 6.82-21.24 0-4.19-1.39-7.15-3.6-8.42Z" style="fill:#455a64"/>
  <path d="M161.05 95.28a6.4 6.4 0 0 0-1.19 2.42 3.24 3.24 0 0 0 1.38-1.41c.08-.16.33-.72.12-1a.19.19 0 0 0-.31-.01m-5.2-1.19a.65.65 0 0 0-.33.5 2.65 2.65 0 0 0 .33 1.69 4.64 4.64 0 0 0 .33-2.07c-.04-.16-.11-.21-.33-.12m-5.21 7.2h-.06a.66.66 0 0 0-.24.36.68.68 0 0 0 .12.84c.27.23.76.22 1.37-.19-.46-.82-.9-1.1-1.19-1.01" style="fill:#ffc100"/>
  <path d="M155.93 81.84c-5.75 3.33-10.41 12.24-10.41 19.91 0 11 6.82 8.92 6.82 13.36a1.24 1.24 0 0 0 1 1.35c1.41.27 3.68-1 5.09-2.93a4.64 4.64 0 0 0 1.05-2.57c0-4.44 6.82-10.21 6.82-21.24.05-7.67-4.61-11.2-10.37-7.88m6 14.71a4.78 4.78 0 0 1-2.4 2.33c-.23.86-.45 1.87-.64 3a60 60 0 0 0-.86 9.86 1.07 1.07 0 0 1-.43.83c-.24.14-.43 0-.43-.31a61.4 61.4 0 0 1 .88-10.17c.19-1.1.4-2.13.64-3a3.2 3.2 0 0 1-1.1-.08 3.8 3.8 0 0 1-1.69-.92 18.7 18.7 0 0 1-1.68 2.86 11 11 0 0 1-1.1 1.35 17 17 0 0 1 .64 2.32 46.7 46.7 0 0 1 .88 9.14 1.07 1.07 0 0 1-.43.82c-.24.13-.43 0-.43-.34a46.3 46.3 0 0 0-.86-8.86 15.5 15.5 0 0 0-.64-2.31c-1.05.81-1.9.87-2.4.45a2 2 0 0 1-.18-2.26 2.16 2.16 0 0 1 1.17-1.33c.68-.21 1.34.33 1.9 1.52a10.4 10.4 0 0 0 1-1.21 17.4 17.4 0 0 0 1.61-2.77 3.88 3.88 0 0 1-.63-2.86 2.63 2.63 0 0 1 1.15-1.81c.58-.33 1-.15 1.16.47a7 7 0 0 1-.63 3.59 3.35 3.35 0 0 0 1.61.91 2.6 2.6 0 0 0 1 .06A8.3 8.3 0 0 1 161 94.1c.45-.37.88-.38 1.17 0a2.53 2.53 0 0 1-.17 2.45Z" style="fill:#ffc100"/>
  <path d="M159.64 112.36v3.53a4.75 4.75 0 0 1-1.09 2.65c-1.44 1.94-3.79 3.3-5.23 3a1.3 1.3 0 0 1-1.08-1.49v-3.18a1.28 1.28 0 0 0 1.08 1.14c1.44.28 3.79-1.08 5.23-3a4.7 4.7 0 0 0 1.09-2.65" style="fill:#ffc100"/>
  <path d="m152.89 116.26-3.6-2.07a1.29 1.29 0 0 1-.59-1.18c0-4.44-6.82-2.33-6.82-13.36a24 24 0 0 1 1.37-7.65c1.26.73 2.89 1.68 3.64 2.1a24 24 0 0 0-1.37 7.68c0 11 6.82 8.92 6.82 13.36a1.28 1.28 0 0 0 .55 1.12m.5.2a1.3 1.3 0 0 1-.46-.17 1.6 1.6 0 0 0 .46.17" style="fill:#37474f"/>
  <path d="M152.83 74c-.49.29-.89 0-.89-.67V66.5a2.14 2.14 0 0 1 .89-1.7c.49-.28.89 0 .89.67v6.82a2.12 2.12 0 0 1-.89 1.71m-8.06 7.52c-.43.57-1 .69-1.21.27L141 77.36a1.86 1.86 0 0 1 .32-1.8c.43-.57 1-.69 1.22-.27l2.55 4.43a1.86 1.86 0 0 1-.32 1.8m-5.91 11.28c-.24.71-.78 1.21-1.21 1.13l-4.42-.85c-.43-.08-.57-.72-.33-1.43s.79-1.21 1.21-1.13l4.43.85c.46.08.57.72.32 1.43m-2.16 12a2.14 2.14 0 0 1-.88 1.7l-5.12 3c-.49.28-.88 0-.88-.67a2.11 2.11 0 0 1 .88-1.7l5.12-3c.49-.28.88.02.88.67m2.16 9.51a1.86 1.86 0 0 1-.32 1.8l-4.43 6c-.42.57-1 .69-1.21.27a1.86 1.86 0 0 1 .33-1.8l4.42-6c.43-.58.97-.7 1.21-.27m27.94-16.13c.25-.71.79-1.22 1.21-1.14l4.43.86c.42.08.57.72.32 1.42s-.78 1.22-1.21 1.14l-4.42-.85c-.43-.09-.57-.73-.33-1.43m2.2-12a2.12 2.12 0 0 1 .89-1.7l5.11-3c.49-.28.89 0 .89.67a2.15 2.15 0 0 1-.89 1.7l-5.11 2.95c-.53.33-.89.03-.89-.62m-2.2-9.51a1.87 1.87 0 0 1 .33-1.8l4.42-6c.43-.58 1-.7 1.21-.27a1.86 1.86 0 0 1-.32 1.8l-4.43 6c-.42.6-.96.7-1.21.27m-5.9-4.46c-.43-.08-.57-.72-.33-1.43l2.56-7.38c.24-.71.78-1.21 1.21-1.13s.57.72.32 1.43l-2.55 7.38c-.25.7-.79 1.21-1.21 1.13" style="fill:#f0f0f0"/>
  <path d="M154.13 361.15a2.07 2.07 0 0 1 2.36-.1 2.91 2.91 0 0 1 1 2.5 7.66 7.66 0 0 1-1 3.62 6.35 6.35 0 0 1-2.32 2.62 2 2 0 0 1-2.32.06 3 3 0 0 1-1-2.51 7.7 7.7 0 0 1 1-3.6 6.14 6.14 0 0 1 2.28-2.59m-3.62-17.52-5 2.86a19.27 19.27 0 0 1 2.5-9.47 17.66 17.66 0 0 1 6.68-7 7.56 7.56 0 0 1 4.55-1.31 4 4 0 0 1 3 2.05 8.53 8.53 0 0 1 1.12 4.55 14.6 14.6 0 0 1-.36 3.13 23 23 0 0 1-1.13 3.61 43 43 0 0 1-2.18 4.24 42 42 0 0 0-2.06 4 14.3 14.3 0 0 0-.7 2.59 27 27 0 0 0-.36 4l-5.13 3v-1.13a24.5 24.5 0 0 1 .93-6.68 30.5 30.5 0 0 1 3-6.92 44 44 0 0 0 2.42-4.63 6.6 6.6 0 0 0 .42-2.31 2.21 2.21 0 0 0-1-2.16c-.67-.36-1.58-.21-2.71.45a7.67 7.67 0 0 0-2.86 3 8.7 8.7 0 0 0-1.13 4.13" style="fill:#3A2622"/>
  <path d="M160 364.08a2.07 2.07 0 0 1 2.36-.1 2.87 2.87 0 0 1 1 2.49 7.76 7.76 0 0 1-1 3.63 6.3 6.3 0 0 1-2.33 2.62 2 2 0 0 1-2.32.06 3 3 0 0 1-1-2.51 7.7 7.7 0 0 1 .94-3.6 6.2 6.2 0 0 1 2.35-2.59" style="fill:#ffc100"/>
  <path d="m157.9 372.91-3.66-2.11-.2-.13a3 3 0 0 1-1-2.52 7.75 7.75 0 0 1 1-3.6l.13-.25 3.67 2.12-.14.25a7.7 7.7 0 0 0-.94 3.6 3 3 0 0 0 .95 2.51Z" style="fill:#455a64"/>
  <path d="M162.18 363.88a2.12 2.12 0 0 0-2.21.19 5.93 5.93 0 0 0-2.15 2.34l-3.67-2.12a6.15 6.15 0 0 1 2-2.24l.15-.09a3 3 0 0 1 1-.39 1.73 1.73 0 0 1 1.21.19l.24.14 3.42 2Z" style="fill:#37474f"/>
  <path d="m156.35 346.56-5 2.86a19.16 19.16 0 0 1 2.5-9.47 17.66 17.66 0 0 1 6.68-7 7.53 7.53 0 0 1 4.54-1.31 4 4 0 0 1 3 2.05 8.53 8.53 0 0 1 1.13 4.55 14.6 14.6 0 0 1-.36 3.13 23.4 23.4 0 0 1-1.14 3.61 45 45 0 0 1-2.17 4.24 43 43 0 0 0-2.07 4 15 15 0 0 0-.7 2.59 27 27 0 0 0-.36 4l-5.13 3v-1.12a24.5 24.5 0 0 1 .93-6.68 30.8 30.8 0 0 1 3-6.93 40 40 0 0 0 2.42-4.62 6.6 6.6 0 0 0 .42-2.31 2.23 2.23 0 0 0-1-2.16c-.68-.36-1.58-.21-2.72.45a7.67 7.67 0 0 0-2.86 3 8.66 8.66 0 0 0-1.11 4.12" style="fill:#ffc100"/>
  <path d="M166.53 332.07a3.8 3.8 0 0 0-1.42-.46 7.53 7.53 0 0 0-4.54 1.31 17.66 17.66 0 0 0-6.68 7l-.21.38-3.68-2.08c.06-.13.13-.26.2-.39a17.7 17.7 0 0 1 6.68-7 7.63 7.63 0 0 1 4.55-1.31 3.9 3.9 0 0 1 1.47.49Zm-3.23 12.12q-.63 1.29-2.07 3.81a30.8 30.8 0 0 0-3 6.93 25 25 0 0 0-.93 6.65v1.12l-1.16-.67-2.5-1.44v-1.13a24.5 24.5 0 0 1 .93-6.68 30.7 30.7 0 0 1 3-6.92c1-1.68 1.65-2.95 2.06-3.81Z" style="fill:#455a64"/>
  <path d="M153.68 340.33a19.16 19.16 0 0 0-2.29 9.09l-3.66-2.11a18.9 18.9 0 0 1 2.29-9.09Zm10.39.74a6.5 6.5 0 0 1-.42 2.3 7 7 0 0 1-.35.82l-3.67-2.11c.16-.34.28-.61.36-.82a6.5 6.5 0 0 0 .4-1.93 2.81 2.81 0 0 1 2.67-.42 2.23 2.23 0 0 1 1.01 2.16" style="fill:#37474f"/>
  <path d="M181.25 378.63a16.7 16.7 0 0 0 3.74 3.66 34 34 0 0 0 4.68 2.88 53.3 53.3 0 0 0 9.84 4.19 22.36 22.36 0 0 0 10.71.7 11.3 11.3 0 0 0 4.74-2.18 7.3 7.3 0 0 0 2.54-4.7c.29-1.78.17-3.66.88-5.36a6.44 6.44 0 0 1 2.77-3c3-1.71 6.45-1.38 9.57-.32 1.88.65 3.68 1.51 5.49 2.33s3.75 1.62 5.66 2.33a58.2 58.2 0 0 0 12.31 3.2c3.73.51 7.8.71 11.33-.79 2.92-1.25 5.48-4.24 5.29-7.56a6 6 0 0 0-.73-2.58 1 1 0 0 0-1-.62.62.62 0 0 0-.44.82c.86 3.13-1.22 6.39-4 7.74-3.27 1.58-7.08 1.32-10.58.88a55 55 0 0 1-11.58-2.9c-1.84-.66-3.64-1.39-5.43-2.17s-3.49-1.58-5.29-2.23c-3.26-1.17-6.82-1.86-10.18-.67a9.46 9.46 0 0 0-3.72 2.33 7.75 7.75 0 0 0-2 4.41c-.25 1.72-.12 3.54-.78 5.17a6.46 6.46 0 0 1-3.29 3.24c-3.05 1.49-6.68 1.41-10 .84a42.2 42.2 0 0 1-9.52-3.13c-3.21-1.39-6.56-2.77-9.21-5.1a18 18 0 0 1-1.73-1.67c-.13-.15-.26.16-.18.26Z" style="fill:#455a64"/>
  <path d="M408.84 374.58a11.4 11.4 0 0 1 1.2 5.86c-.1 1.77-1.16 4.06-.68 8.05s1.39 5.25 1.81 8.08a9.9 9.9 0 0 1-1.55 7.5c-1.65 2.68-5.3 4.81-12.5 4.55-5.82-.21-8.16-3.19-8.29-6.61Z" style="fill:#263238"/>
  <path d="M407.15 366.29a13.7 13.7 0 0 1 .35 2.26c.22 1.35.62 2.64.94 4q.13.53.24 1.05c.56 2.67 0 5.44 0 8.16a45.5 45.5 0 0 0 1.68 9.51c1.31 5.65 1.52 9.43-3.43 13.35-2.61 2.06-5.46 2.14-8.77 2.23-2.51.06-5.8-.67-7.28-1.77-2.12-1.56-2.09-2.87-2.11-3.37-.19-6 2-13 2.41-19a29 29 0 0 0 .11-4.86c-.2-2-.9-4-1.11-6a3.37 3.37 0 0 1 .28-2.2 3.5 3.5 0 0 1 2.66-1.2c2.64-.35 5.28-.61 7.92-.8a2.42 2.42 0 0 1 1.8.36 3.27 3.27 0 0 1 .66 1.92c.14.68.64 1.44 1.32 1.32a1.15 1.15 0 0 0 .8-1c.07-.45.26-3.93.24-4.38.04 0 .98-.15 1.29.42" style="fill:#37474f"/>
  <path d="M319.72 386.22a4.5 4.5 0 0 0 0 3.3c.42 1 5.34 4 12.15 3.85a28.26 28.26 0 0 0 14.3-4.37c2.66-1.61 5.37-1.82 8.74-1.88s7.32-1.27 8.47-2.8a8 8 0 0 0 0-4.54Z" style="fill:#263238"/>
  <path d="M344.34 366.11a15 15 0 0 0-.71 1.49 12.1 12.1 0 0 1-3.74 4.67 38.4 38.4 0 0 1-7.52 4.06c-1.67.74-3.43 1-5.12 1.55a29 29 0 0 0-5.51 2.42c-2.74 1.69-3.27 6.19-.3 8.09 2.55 1.65 9.38 3.59 16.7 1.84 4-1 8.52-5 13.71-5.18 3.3-.13 9.55-.8 11.77-3.21.82-3.6-.07-4.63-.81-7.69a25.3 25.3 0 0 1-.62-5.27c0-.94.62-3.61-1.34-3.94l-.2 2s-.37.68-2.4 1c-.66.11-1.18 1-1.54 1.77-.27.61-.56 1.38-1.23 1.37a1.24 1.24 0 0 1-1-.8 9.4 9.4 0 0 1-.38-1.31 5.13 5.13 0 0 0-3.08-3 15.5 15.5 0 0 0-3.62-.76c-.93-.14-1.7-.55-2.53.25a3 3 0 0 0-.53.65" style="fill:#37474f"/>
  <path d="M396.08 212.18c2.52 24.59 3.52 36.28 6.75 85.34a141.3 141.3 0 0 1 4.92 28.2c.7 11.91 2.39 47.8 2.39 47.8s-9.6 7.88-20.72 4.24c0 0-10.05-52.74-13.56-69.2-3.36-15.8-6.77-35.65-6.77-35.65l-1.58 24.61s.45 9.8.14 24.43c-.17 7.83-3.94 50.19-3.94 50.19s-13.47 6.12-22.56-1.74c0 0-.66-68.69-.79-75.78-.16-8.07 1.23-89.38 1.23-89.38Z" style="fill:#ffc100"/>
  <path d="M396.08 212.18c2.52 24.59 3.52 36.28 6.75 85.34a141.3 141.3 0 0 1 4.92 28.2c.7 11.91 2.39 47.8 2.39 47.8s-9.6 7.88-20.72 4.24c0 0-10.05-52.74-13.56-69.2-3.36-15.8-6.77-35.65-6.77-35.65l-1.58 24.61s.45 9.8.14 24.43c-.17 7.83-3.94 50.19-3.94 50.19s-13.47 6.12-22.56-1.74c0 0-.66-68.69-.79-75.78-.16-8.07 1.23-89.38 1.23-89.38Z" style="opacity:.15"/>
  <path d="m369.09 272.91-6-33.49s-10.64-.93-16.52-6.86c0 0 1.05 5.82 14.42 9.31l5.43 27.94 1.14 27.71ZM409.83 367a21.86 21.86 0 0 1-14.77 5.32s9.18-1.36 14.67-7.42Zm-45.68.14s-9.38 3.28-17.3.78c0 0 6.11 4.11 17.17.73Z" style="opacity:.25"/>
  <path d="M340 143.4c-4 5.6-15.9 27.88-19 34.47l-20.85-16.67c-1.72-2.19-1.71-6.77-4.66-11.11-3.26-4.8-1.94-9.52-4.28-8.88-1.29.35-2.06 2-2 3.42 0 2.77 1.32 6.25.23 6-1.63-.58-2.85-2.43-5-5.2-.9-1.14-3-5.74-4.17-7.78a1.8 1.8 0 0 0-3.2-.21c-.3.64-.51 2.1-.8 2.71a6.1 6.1 0 0 1-1.24 1.25 6.2 6.2 0 0 0-1.29 1.21c-.9 1.39-.06 2.92-.4 4.41-.68 3.06.32 6.17 1.79 8.84.66 1.21 1.3 2.46 2 3.62a26.3 26.3 0 0 0 5.79 6.3c2 1.65 4.34 2.56 6.25 4.31s7.36 8.1 11.5 12.6c6.83 7.44 12.85 14.34 15 15.73 5.33 3.46 10.25 4 16.09-2.83 7-8.2 20.07-29.1 20.07-29.1l2.8-28.8s-9.97-1.02-14.63 5.71" style="fill:#ffe2c6"/>
  <path d="M355.25 137.66c-6.19-.94-11.42.23-15.29 4.66s-14.49 26-16.08 28-3 2.74-3.19 4.4a2.66 2.66 0 0 0 .74 2.36c2.9.45 12.06 15.26 8.69 20.28l-1.56 1.36a3.06 3.06 0 0 0 3.92 0c2.11-1.62 4.61-6.38 7.48-10.5s15.29-21.07 15.29-21.07Z" style="fill:#263238"/>
  <path d="m321.43 177-1.12.27s3.86 4.21 5 12.53c.61 4.58-.08 9.87-1.41 11.12 0 0 1.36.51 3.6-1.06a28 28 0 0 0 3.45-2.78 15.7 15.7 0 0 0-1.21-11c-2.94-6.15-6.02-8.38-8.31-9.08" style="fill:#37474f"/>
  <path d="m293.84 326.6-22.7 46.26a1.56 1.56 0 0 1-2.94-.38L258 321.66Z" style="fill:#ffa8a7"/>
  <path d="M268.2 372.48a1.56 1.56 0 0 0 2.94.38l4.44-9a8.67 8.67 0 0 1-8.9-1.63l-.66-.59Z" style="fill:#455a64"/>
  <path d="m286 106.09-.61 4.73-.76 5.71L258 321.66c3.24 4.81 8.58 7.73 14.21 9 8.56 2 17.82.29 21.6-4.08l26.56-205 1.41-10.91c-1.3 7.02-37.04 2.47-35.78-4.58" style="fill:#ffc100"/>
  <path d="m286 106.09-.61 4.73-.76 5.71L258 321.66c3.24 4.81 8.58 7.73 14.21 9 8.56 2 17.82.29 21.6-4.08l26.56-205 1.41-10.91c-1.3 7.02-37.04 2.47-35.78-4.58" style="fill:#fff;opacity:.5"/>
  <path d="m283.57 124.09-1.35 10.57c-.49 3.05 5.78 5.85 13.22 7.5 9.89 2.21 22 1 22.67-3l1-7.78.31-2.79c-.66 4-12.78 5.26-22.67 3.05-7.13-1.59-13.21-4.26-13.21-7.16a.52.52 0 0 1 .03-.39" style="fill:#ebebeb"/>
  <path d="M283.25 126.73c-1.15 7.08 34.71 11.53 35.87 4.45l1.38-10.57c-1.15 7.08-37 2.63-35.86-4.45Z" style="fill:#ffc100"/>
  <path d="m286 106.09-1.37 10.44c-1.19 6.94 33.38 11.53 35.79 5.06a2 2 0 0 0 .11-.39l1.3-10.52c-1.35 7.01-37.09 2.46-35.83-4.59" style="fill:#ebebeb"/>
  <path d="m320.38 121.59 1.41-10.91c-.59 3.17-8.21 4.62-16.36 3.88L277.36 331.5l-6.22 41.36 22.7-46.26Z" style="opacity:.1"/>
  <path d="M327.65 65.5c0-.12.07-.23.08-.35.58-4.59-7-9.33-16.87-10.58s-18.37 1.44-19 6L286 106.09c-.51 3 5.68 5.83 13.06 7.51 9.87 2.24 22 1.09 22.77-2.92l5.78-44.44c0-.21 0-.4.06-.61Z" style="fill:#f28f8f"/>
  <path d="m313 54.9-7.56 59.67c8.08.66 15.78-.72 16.36-3.89l5.78-44.44c0-.21 0-.4.06-.61v-.13c0-.12.07-.23.08-.35.55-4.26-5.91-8.63-14.72-10.25" style="opacity:.1"/>
  <path d="M327.73 65.15c-.58 4.59-9.08 7.29-19 6s-17.45-6-16.87-10.58 9.08-7.3 19-6 17.45 5.99 16.87 10.58" style="fill:#ffa8a7"/>
  <path d="M397.28 216.94s.57 4.44-.16 5.58-14.35 4.75-32.06 3-23.06-6.39-23.68-7.43-.51-3.43 0-6.05Z" style="fill:#263238"/>
  <path d="M340.92 159.73c1-16.33 8.11-22.26 15.4-22.09l19.13-1.28c4.09 1.06 16.87 4.13 22.44 5.8s5.62 14.16 4.33 22.43-4 14.56-4.79 28.47c.22 13.17 3.57 20.11.32 23.6-11.9 7.55-44.05 5.05-56.62-2.52-2.66-1.31.08-11.32-.18-19.42-.44-13.9-.33-29.72-.03-34.99" style="fill:#37474f"/>
  <path d="M398.33 142.32c6.72.71 8.23 1.92 10.21 5s5.74 15.32 6.44 22c-3.94 11.18-19.86 6-19.86 6Z" style="fill:#263238"/>
  <path d="M360.87 137.22s-6.57 6-4.38 11.53 11.68 6.55 19.09 1.26 6.76-11.48 6.76-11.48l-2.79-.86a9.2 9.2 0 0 1-1.53 3.78c-1.17 1.4-15.93 7.31-16.23 9 0 0-1.84-4.26-2-5.9a20.3 20.3 0 0 1 1-6.17Z" style="fill:#fafafa"/>
  <path d="M347.61 98.57c-.18 3.15.2 5.44 2.51 7.62a93 93 0 0 0 13.2 10.66 54 54 0 0 0 7.49 4.07 30 30 0 0 0 8.21 1.93l-.78 7.09s.94-1.83 2.21-4c1.1-1.88 5.78-11.49 5.78-11.49 1.84-3.78 4.07-7.71 4.13-12 0-2.85-1.23-5.9-3.78-7.17.11-5.93-5.06-10.71-9.78-12.46a27.6 27.6 0 0 0-12.75-1.51 20.27 20.27 0 0 0-11.64 5.23c-1.75 1.56-4.41 4.78-4.8 12.03" style="fill:#263238"/>
  <path d="M374.71 97.05a14.15 14.15 0 0 0 4.09 8 25.9 25.9 0 0 0-.69 8.61 4.7 4.7 0 0 0 .55 1.76 2.11 2.11 0 0 0 1.47 1c.82.11 1.19-.38 1.49-1a21 21 0 0 1 1.4-2.35 4.8 4.8 0 0 1 .79-.89c1.33-1.09 5.16-2.31 6.67 1.78s-2.06 9.5-5.12 10.17c-5.29 1.16-6.22-2.44-6.22-2.44l-2 18.5c-3 2.79-12 6.9-15.31 10.22-1.25-2.46-4.19-7-1-12.07l.09-6.1a43.3 43.3 0 0 1-8.37-.89c-2.67-.68-4.45-3.24-5.43-7.4-1.9-8.1.09-18.94 1.36-23.8a15.93 15.93 0 0 1 4.41-7.75.94.94 0 0 1 1.46.24 8.27 8.27 0 0 0 5.52 3.65c3.2.65 8.48.17 12.52-.83a1.9 1.9 0 0 1 2.32 1.59" style="fill:#ffe2c6"/>
  <path d="M360.88 132.28c4.83-.17 8.3-.63 11.08-1.91a10.2 10.2 0 0 0 4.44-3.67s-.35 1.9-3.06 4.29c-3.06 2.69-12.48 3-12.48 3Z" style="fill:#dfc4a8"/>
  <path d="M365.81 111.16a1.66 1.66 0 1 0 1.81-1.57 1.68 1.68 0 0 0-1.81 1.57m1.96-7.08a10.9 10.9 0 0 1 4.2 3 2.72 2.72 0 0 0-.61-3.72 2.52 2.52 0 0 0-3.59.72" style="fill:#263238"/>
  <path d="m364.73 121.32-6 1.27a3 3 0 0 0 3.59 2.48 3.22 3.22 0 0 0 2.41-3.75" style="fill:#dfc4a8"/>
  <path d="M364.06 122.64a2.78 2.78 0 0 0-2.74 2.46 2.9 2.9 0 0 0 1 0 3.17 3.17 0 0 0 2.37-2.31 3 3 0 0 0-.63-.15" style="fill:#f28f8f"/>
  <path d="M351.76 104a7.5 7.5 0 0 1 4.2 2.82 2.44 2.44 0 0 0-.67-3.44 2.58 2.58 0 0 0-3.53.62m-.54 5.23a1.67 1.67 0 1 0 1.82-1.59 1.7 1.7 0 0 0-1.82 1.59" style="fill:#263238"/>
  <path style="fill:#dfc4a8" d="m360.79 107.18-1.41 12.1-6.01-2.78z"/>
  <path d="M361.79 150.45c2.19-1.16 4.64-4.42 6.54-1.64s3.22 6 4.78 5.6 6.91-4.78 9.09-8.77a18.5 18.5 0 0 0 1.95-7s-1.67-2.13-3.06-3.79c-1.55-1.83-1.79-2.31-3.12-2.49l-.5 4.57a6.93 6.93 0 0 1-3.11 4.38c-3.9 2.42-9.47 3.35-12.57 9.14" style="fill:#ebebeb"/>
  <path d="M361.79 150.45c-1.18-1.23-4.73-4.91-6.82-4.45s-4.35 4.36-4.34 3.26 2.47-7.66 4.16-9.88 4.67-4.38 6-4.53v3.53a20.2 20.2 0 0 0-1.08 5c.03 2.95 1.93 5.25 2.08 7.07" style="fill:#ebebeb"/>
  <path d="M397 136.13a24.9 24.9 0 0 1-2.81-9.36c-.22-3.8-2.47-7.66-3.18-9.21s-2.45-4-3.69-6.19-1.61-2.84-3.84-3.66c-3.07-1.12-5.46-2.08-6.77-1.93s-1.42 1-.55 2.26 3.09 2 3.76 2.33 2.08 1.3 2.08 1.3l2.13 4.86a43.6 43.6 0 0 0-6.21.34c-1.08.35-2.38 2.72-2.21 4.18 0 0-2.05.9-1.67 2.83 0 0-1.38 1.24-.84 2.57a19.6 19.6 0 0 0 2.35 3.83c.51.64 2.88 1.21 2.88 1.21a22 22 0 0 0 2.93 5c1.47 1.58 2.61 1.7 4 4.69Z" style="fill:#ffe2c6"/>
  <path d="M381.77 116.56c-1.08-.73-1.19-1.57-2.38-1.36s-1 1.57-1 1.57Zm-6.08 4.61a11.2 11.2 0 0 1 2.7-1.11c.89-.25 2.7-.53 2.7-.53a12.5 12.5 0 0 0-3.6.18 10 10 0 0 0-1.78.51 3 3 0 0 0 0 .83Zm-.47 1.64a8.5 8.5 0 0 0-1.25.37 3.4 3.4 0 0 0 0 .83c.82-.8 3.48-1.36 3.48-1.36a10.5 10.5 0 0 0-2.23.16m3.49 9.41a24 24 0 0 0-1.7-4.35 1.81 1.81 0 0 0-2.38-.68c-.4.42 1.22.65 1.65.95a15.8 15.8 0 0 1 2.43 4.08m6.76-15.57s-.67-1.45-1.92-3.79-1.2-2-2.73-2.64-4.41-1.69-5.05-2.79a4.4 4.4 0 0 0 .35.61c.85 1.26 3.09 2 3.76 2.33s2.08 1.3 2.08 1.3l2.19 5Z" style="fill:#dfc4a8"/>
  <path d="M397 136.13c4.13 7.39 15.58 25.45 17.75 32.19C416.21 173 415 183 412 186.1s-9.4.41-13.93-5.35c-3.91-5-6-15.55-8-23.19s-4.68-16.33-4.68-16.33Z" style="fill:#ffe2c6"/>
  <path d="M397 136.13a34.6 34.6 0 0 1-2.27-5.74 18.6 18.6 0 0 1-.56-3 15.4 15.4 0 0 0-.47-3 28 28 0 0 0-2.3-5.7 44 44 0 0 0-3.09-5.33c-.55-.87-1.07-1.78-1.57-2.67a5.2 5.2 0 0 0-2-2.19 25 25 0 0 0-2.84-1.13c-1-.35-1.94-.71-2.92-1a4.3 4.3 0 0 0-2.88-.16c-.41.2-.37.71-.16 1.15a3.5 3.5 0 0 0 .85 1.19 9.6 9.6 0 0 0 2.63 1.47 16.4 16.4 0 0 1 2.69 1.58l2.11 4.86.1.23h-.25a54 54 0 0 0-5.56.21c-.95 0-1.54.79-2 1.56a4.8 4.8 0 0 0-.72 2.58v.09h-.08a3.3 3.3 0 0 0-1.29 1.08 2.16 2.16 0 0 0-.32 1.6v.07h-.05a2.45 2.45 0 0 0-.89 2.22 11.7 11.7 0 0 0 1.19 2.3c.23.37.48.74.73 1.09s.47.75.85.93a10.3 10.3 0 0 0 2.44.89v.05c.4.92.83 1.83 1.32 2.71a12 12 0 0 0 1.7 2.46c.68.74 1.53 1.3 2.21 2.05a9.3 9.3 0 0 1 1.6 2.55 9.7 9.7 0 0 0-1.63-2.52c-.69-.73-1.55-1.27-2.25-2a12 12 0 0 1-1.76-2.46 30 30 0 0 1-1.36-2.71l.06.06a11.5 11.5 0 0 1-2.5-.9 3.1 3.1 0 0 1-.91-1c-.26-.36-.51-.73-.74-1.1a11 11 0 0 1-1.23-2.36 2.71 2.71 0 0 1 .94-2.47v.12a2.4 2.4 0 0 1 .35-1.79 3.6 3.6 0 0 1 1.39-1.18l-.08.14a5.07 5.07 0 0 1 .73-2.75 5.3 5.3 0 0 1 .87-1.14 1.9 1.9 0 0 1 .62-.42 4 4 0 0 1 .72-.16c1.87-.21 3.74-.21 5.61-.24l-.15.23-2.14-4.85.06.08a16.3 16.3 0 0 0-2.63-1.54 9.8 9.8 0 0 1-2.73-1.55 4 4 0 0 1-.93-1.31 1.9 1.9 0 0 1-.18-.83.93.93 0 0 1 .49-.75 2.6 2.6 0 0 1 1.61-.2 9.7 9.7 0 0 1 1.57.47c1 .3 2 .66 2.93 1a26 26 0 0 1 2.88 1.17 5.44 5.44 0 0 1 2.1 2.31c.51.9 1 1.79 1.55 2.67a44 44 0 0 1 3.08 5.36 28.8 28.8 0 0 1 2.27 5.75 15.2 15.2 0 0 1 .43 3.07 18 18 0 0 0 .52 3 33.5 33.5 0 0 0 2.24 5.8" style="fill:#dfc4a8"/>
  <path d="M396.09 88.91A2.2 2.2 0 1 1 395 86a2.2 2.2 0 0 1 1.09 2.91" style="fill:#37474f"/>
  <path d="M391.64 87c-1-1.37-.41-2.61 1.26-2.77a5.84 5.84 0 0 1 4.8 2.2c1 1.37.4 2.61-1.27 2.76a5.81 5.81 0 0 1-4.79-2.19" style="fill:#455a64"/>
  <path d="M391.89 86.27c-1-1.41-.42-2.69 1.31-2.85a6 6 0 0 1 4.94 2.26c1 1.41.42 2.69-1.31 2.86a6 6 0 0 1-4.94-2.27" style="fill:#37474f"/>
  <path d="M392.16 85.5c-1-1.46-.44-2.78 1.34-3a6.23 6.23 0 0 1 5.1 2.34c1 1.45.43 2.77-1.35 2.94a6.21 6.21 0 0 1-5.09-2.28" style="fill:#455a64"/>
  <path d="M392.43 84.69c-1.07-1.5-.45-2.85 1.39-3a6.4 6.4 0 0 1 5.25 2.4c1.06 1.5.44 2.86-1.39 3a6.41 6.41 0 0 1-5.25-2.4" style="fill:#37474f"/>
  <path d="M392.74 83.86c-1.08-1.53-.45-2.91 1.42-3.09a6.51 6.51 0 0 1 5.36 2.45c1.09 1.53.45 2.92-1.42 3.09a6.51 6.51 0 0 1-5.36-2.45" style="fill:#455a64"/>
  <path d="M406.08 61.8a10.48 10.48 0 0 0-13.89 5.2c-3.45 7.56 2.21 11.67.82 14.72a1.78 1.78 0 0 0 .34 1.78 5.67 5.67 0 0 0 4.65 2.1 1.8 1.8 0 0 0 1.58-.91c1.39-3 8.21-1.44 11.66-9a10.47 10.47 0 0 0-5.16-13.89" style="fill:#ffc100"/>
  <g style="opacity:.6000000000000001">
    <path d="M406.08 61.8a10.48 10.48 0 0 0-13.89 5.2c-3.45 7.56 2.21 11.67.82 14.72a1.78 1.78 0 0 0 .34 1.78 5.67 5.67 0 0 0 4.65 2.1 1.8 1.8 0 0 0 1.58-.91c1.39-3 8.21-1.44 11.66-9a10.47 10.47 0 0 0-5.16-13.89" style="fill:#fff"/>
  </g>
  <path d="M394.12 83.32c-.71-1-.3-1.9.92-2a4.27 4.27 0 0 1 3.5 1.6c.71 1 .29 1.9-.93 2a4.25 4.25 0 0 1-3.49-1.6" style="fill:#ffc100"/>
  <path d="M397.71 83.46a.36.36 0 0 1-.18-.47 25.2 25.2 0 0 1 3.16-5.14 13 13 0 0 1 1.16-1.29 5 5 0 0 1-.64-.78 6.3 6.3 0 0 1-.78-1.65 5.9 5.9 0 0 1-1.74.49 5 5 0 0 1-1 0 13 13 0 0 1-.21 1.73 25.4 25.4 0 0 1-1.83 5.74.36.36 0 0 1-.47.17.37.37 0 0 1-.17-.48 24.6 24.6 0 0 0 1.77-5.57 13 13 0 0 0 .21-1.72 2.22 2.22 0 0 1-1.56-1.36 1.14 1.14 0 0 1 .47-1.4.93.93 0 0 1 1.05 0 2.68 2.68 0 0 1 .75 2.13 4 4 0 0 0 .92 0 5.8 5.8 0 0 0 1.68-.49 2.6 2.6 0 0 1 .36-2 1 1 0 0 1 1.73.79 2.6 2.6 0 0 1-1.3 1.6 5.4 5.4 0 0 0 .73 1.59 4 4 0 0 0 .59.7 2.73 2.73 0 0 1 2.11-.82.94.94 0 0 1 .71.77 1.15 1.15 0 0 1-.75 1.27 2.25 2.25 0 0 1-2-.29 12 12 0 0 0-1.17 1.29 25.5 25.5 0 0 0-3.06 5 .36.36 0 0 1-.47.19Zm-1.24-11.11a.24.24 0 0 0-.24 0 .46.46 0 0 0-.15.56 1.44 1.44 0 0 0 .88.82c-.06-.79-.25-1.24-.45-1.38Zm6.53 4.17a1.46 1.46 0 0 0 1.2.13c.09 0 .38-.19.32-.47s-.11-.21-.18-.23a2 2 0 0 0-1.34.57m-1.5-4.72a.22.22 0 0 0-.32.06 1.7 1.7 0 0 0-.24 1.17 1.7 1.7 0 0 0 .73-.94.23.23 0 0 0-.17-.29" style="fill:#fff"/>
  <path d="m407.8 58.2-.18-.05a.69.69 0 0 1-.34-.91l1.46-3.24a.68.68 0 0 1 1.25.56l-1.47 3.25a.67.67 0 0 1-.72.39m-7.8-1.26a.69.69 0 0 1-.58-.61l-.36-3.55a.68.68 0 1 1 1.36-.14l.36 3.55a.68.68 0 0 1-.61.75.5.5 0 0 1-.17 0m-7.35 2.79a.7.7 0 0 1-.45-.27l-2.08-2.9a.67.67 0 0 1 .15-1 .7.7 0 0 1 1 .15l2.08 2.9a.68.68 0 0 1-.66 1.07Zm-4.98 6.11a.6.6 0 0 1-.18-.06l-3.25-1.46a.68.68 0 0 1 .56-1.25l3.26 1.47a.69.69 0 0 1-.39 1.3m24.87 21.48a.65.65 0 0 1-.45-.27l-2.09-2.9a.68.68 0 0 1 .16-1 .68.68 0 0 1 .95.15l2.09 2.9a.68.68 0 0 1-.16 1 .65.65 0 0 1-.5.12m6.15-7.53-.18-.05-3.25-1.47a.67.67 0 0 1-.34-.9.68.68 0 0 1 .9-.35l3.25 1.47a.68.68 0 0 1 .35.9.7.7 0 0 1-.73.4m-2-9.24a.69.69 0 0 1 0-1.36l3.55-.36a.68.68 0 0 1 .75.61.68.68 0 0 1-.61.75l-3.55.36a.5.5 0 0 1-.14 0m-2.79-7.37a.69.69 0 0 1-.3-1.23l2.9-2.09a.68.68 0 0 1 .95.16.67.67 0 0 1-.15.95l-2.89 2.09a.7.7 0 0 1-.51.12" style="fill:#3A2622"/>
  <path d="M403.52 103.8a.46.46 0 0 1-.22-.58l.17-.41a2.31 2.31 0 0 0-1-2.89l-.38-.23a.47.47 0 0 1-.17-.6.45.45 0 0 1 .58-.22l.5.13a2.32 2.32 0 0 0 2.88-1l.23-.38a.45.45 0 0 1 .6-.17.45.45 0 0 1 .22.58l-.17.41a2.33 2.33 0 0 0 .95 2.89l.38.23a.46.46 0 0 1-.41.82l-.41-.17a2.32 2.32 0 0 0-2.89 1l-.23.38a.46.46 0 0 1-.6.17Zm.52-3.67a3.3 3.3 0 0 1 .53 1.6 3.3 3.3 0 0 1 1.59-.53 3.2 3.2 0 0 1-.52-1.59 3.26 3.26 0 0 1-1.64.52Zm12.26 2.12a2.94 2.94 0 1 1 3.95-1.3 2.94 2.94 0 0 1-3.95 1.3m2.24-4.43a2 2 0 1 0 .89 2.72 2 2 0 0 0-.89-2.72m-3.71 12.77a.45.45 0 0 1-.2-.62l.69-1.36a.45.45 0 1 1 .81.41l-.69 1.37a.46.46 0 0 1-.61.2m-1.23.41-1.37-.69a.46.46 0 0 1-.2-.61.45.45 0 0 1 .62-.2l1.36.69a.45.45 0 1 1-.41.81m-.33 2.67a.47.47 0 0 1-.2-.62l.69-1.36a.47.47 0 0 1 .62-.21.47.47 0 0 1 .2.62l-.69 1.37a.46.46 0 0 1-.62.2m3.41-1.12-1.37-.69a.46.46 0 0 1 .42-.82l1.36.69a.47.47 0 0 1 .21.62.47.47 0 0 1-.62.2m-41.34-50.27a.45.45 0 0 1-.57-.25l-.18-.41a2.34 2.34 0 0 0-2.74-1.33l-.43.12a.46.46 0 0 1-.3-.87l.41-.17a2.34 2.34 0 0 0 1.33-2.74l-.12-.43a.46.46 0 0 1 .87-.3l.17.41a2.33 2.33 0 0 0 2.74 1.32l.43-.11a.46.46 0 0 1 .3.87l-.41.17a2.33 2.33 0 0 0-1.32 2.74l.11.43a.47.47 0 0 1-.29.55m-2.28-2.93a3.3 3.3 0 0 1 1.52.74 3.1 3.1 0 0 1 .73-1.51 3.2 3.2 0 0 1-1.51-.74 3.2 3.2 0 0 1-.74 1.51m.44 14.52a2.94 2.94 0 1 1 1.82-3.74 2.94 2.94 0 0 1-1.82 3.74m-1.63-4.69A2 2 0 1 0 373.2 73a2 2 0 1 0-1.33-3.82m-11.16-4.3a.46.46 0 0 1-.59-.28l-.5-1.45a.46.46 0 0 1 .28-.58.47.47 0 0 1 .59.28l.5 1.45a.46.46 0 0 1-.28.58m-.57 1.17-1.45.5a.45.45 0 0 1-.58-.28.47.47 0 0 1 .28-.59l1.45-.5a.46.46 0 0 1 .58.28.46.46 0 0 1-.28.59m1.7 2.09a.46.46 0 0 1-.59-.28l-.5-1.44a.46.46 0 1 1 .87-.31l.5 1.45a.45.45 0 0 1-.28.58m1.56-3.22-1.45.5a.46.46 0 0 1-.58-.28.47.47 0 0 1 .28-.59l1.45-.5a.45.45 0 0 1 .58.28.46.46 0 0 1-.28.59" style="fill:#ffc100"/>
</svg>
